<svg id="Layer_1" version="1.1" viewBox="0 0 512 512" xml:space="preserve" xmlns="http://www.w3.org/2000/svg"><linearGradient gradientUnits="userSpaceOnUse" id="SVGID_1_" x1="0" x2="512" y1="256" y2="256"><stop offset="0" style="stop-color:#00aeee"/><stop offset="1" style="stop-color:#0095da"/></linearGradient><circle cx="256" cy="256" fill="url('#SVGID_1_')" r="256"/><linearGradient gradientUnits="userSpaceOnUse" id="SVGID_2_" x1="42.667" x2="469.333" y1="256.001" y2="256.001"><stop offset="0" style="stop-color:#0095da"/><stop offset="1" style="stop-color:#00aeee"/></linearGradient><path d="M256 469.334c-117.632 0-213.333-95.702-213.333-213.333S138.368 42.667 256 42.667c117.636 0 213.333 95.703 213.333 213.334S373.636 469.334 256 469.334z" fill="url('#SVGID_2_')"/><path d="M264 144c-66.274 0-120 53.726-120 120s53.726 120 120 120 120-53.726 120-120-53.726-120-120-120zm0 197.708-63.315-63.316h33.578v-82.1h59.473v82.1h33.58L264 341.708z" opacity=".3"/><path d="M256 136c-66.274 0-120 53.726-120 120s53.726 120 120 120 120-53.726 120-120-53.726-120-120-120zm0 197.708-63.315-63.316h33.578v-82.1h59.473v82.1h33.58L256 333.708z" fill="#FFF"/></svg>